<mxfile host="app.diagrams.net" modified="2023-04-05T02:31:38.356Z" agent="Mozilla/5.0 (Macintosh; Intel Mac OS X 10_15_7) AppleWebKit/537.36 (KHTML, like Gecko) Chrome/111.0.0.0 Safari/537.36" etag="rM8cXlmXpXo3mSawUEIO" version="21.1.4" type="github" pages="3">
  <diagram name="简单方案" id="suSyverLm-YBrHtKf4Aj">
    <mxGraphModel dx="1434" dy="698" grid="1" gridSize="10" guides="1" tooltips="1" connect="1" arrows="1" fold="1" page="1" pageScale="1" pageWidth="827" pageHeight="1169" math="0" shadow="0">
      <root>
        <mxCell id="0" />
        <mxCell id="1" parent="0" />
        <mxCell id="mKjcdqouhTTLhyp-S74l-1" value="Device 1" style="sketch=0;outlineConnect=0;fontColor=#232F3E;gradientColor=none;fillColor=#232F3D;strokeColor=none;dashed=0;verticalLabelPosition=bottom;verticalAlign=top;align=center;html=1;fontSize=12;fontStyle=0;aspect=fixed;pointerEvents=1;shape=mxgraph.aws4.mobile_client;" vertex="1" parent="1">
          <mxGeometry x="90" y="80" width="152.44" height="290" as="geometry" />
        </mxCell>
        <mxCell id="mKjcdqouhTTLhyp-S74l-2" value="AWS Region" style="points=[[0,0],[0.25,0],[0.5,0],[0.75,0],[1,0],[1,0.25],[1,0.5],[1,0.75],[1,1],[0.75,1],[0.5,1],[0.25,1],[0,1],[0,0.75],[0,0.5],[0,0.25]];outlineConnect=0;gradientColor=none;html=1;whiteSpace=wrap;fontSize=12;fontStyle=0;container=1;pointerEvents=0;collapsible=0;recursiveResize=0;shape=mxgraph.aws4.group;grIcon=mxgraph.aws4.group_region;strokeColor=#147EBA;fillColor=none;verticalAlign=top;align=left;spacingLeft=30;fontColor=#147EBA;dashed=1;" vertex="1" parent="1">
          <mxGeometry x="360" y="70" width="440" height="310" as="geometry" />
        </mxCell>
        <mxCell id="mKjcdqouhTTLhyp-S74l-5" value="Game Subscription&lt;br&gt;&amp;nbsp;Server" style="rounded=1;whiteSpace=wrap;html=1;" vertex="1" parent="mKjcdqouhTTLhyp-S74l-2">
          <mxGeometry x="80" y="92" width="160" height="120" as="geometry" />
        </mxCell>
        <mxCell id="mKjcdqouhTTLhyp-S74l-6" value="" style="outlineConnect=0;dashed=0;verticalLabelPosition=bottom;verticalAlign=top;align=center;html=1;shape=mxgraph.aws3.lambda_function;fillColor=#F58534;gradientColor=none;" vertex="1" parent="mKjcdqouhTTLhyp-S74l-2">
          <mxGeometry x="90" y="100" width="20" height="20" as="geometry" />
        </mxCell>
        <mxCell id="mKjcdqouhTTLhyp-S74l-7" value="DynamoDB" style="sketch=0;points=[[0,0,0],[0.25,0,0],[0.5,0,0],[0.75,0,0],[1,0,0],[0,1,0],[0.25,1,0],[0.5,1,0],[0.75,1,0],[1,1,0],[0,0.25,0],[0,0.5,0],[0,0.75,0],[1,0.25,0],[1,0.5,0],[1,0.75,0]];outlineConnect=0;fontColor=#232F3E;gradientColor=#4D72F3;gradientDirection=north;fillColor=#3334B9;strokeColor=#ffffff;dashed=0;verticalLabelPosition=bottom;verticalAlign=top;align=center;html=1;fontSize=12;fontStyle=0;aspect=fixed;shape=mxgraph.aws4.resourceIcon;resIcon=mxgraph.aws4.dynamodb;" vertex="1" parent="mKjcdqouhTTLhyp-S74l-2">
          <mxGeometry x="320" y="110" width="78" height="78" as="geometry" />
        </mxCell>
        <mxCell id="mKjcdqouhTTLhyp-S74l-3" value="App A" style="image;aspect=fixed;perimeter=ellipsePerimeter;html=1;align=center;shadow=0;dashed=0;fontColor=#4277BB;labelBackgroundColor=default;fontSize=12;spacingTop=3;image=img/lib/ibm/applications/mobile_app.svg;" vertex="1" parent="1">
          <mxGeometry x="141.22" y="150" width="50" height="50" as="geometry" />
        </mxCell>
        <mxCell id="mKjcdqouhTTLhyp-S74l-4" value="App B" style="image;aspect=fixed;perimeter=ellipsePerimeter;html=1;align=center;shadow=0;dashed=0;fontColor=#4277BB;labelBackgroundColor=default;fontSize=12;spacingTop=3;image=img/lib/ibm/applications/mobile_app.svg;" vertex="1" parent="1">
          <mxGeometry x="141.22" y="240" width="50" height="50" as="geometry" />
        </mxCell>
        <mxCell id="mKjcdqouhTTLhyp-S74l-8" value="Device 2" style="sketch=0;outlineConnect=0;fontColor=#232F3E;gradientColor=none;fillColor=#232F3D;strokeColor=none;dashed=0;verticalLabelPosition=bottom;verticalAlign=top;align=center;html=1;fontSize=12;fontStyle=0;aspect=fixed;pointerEvents=1;shape=mxgraph.aws4.mobile_client;" vertex="1" parent="1">
          <mxGeometry x="90" y="430" width="152.44" height="290" as="geometry" />
        </mxCell>
        <mxCell id="mKjcdqouhTTLhyp-S74l-9" value="App A" style="image;aspect=fixed;perimeter=ellipsePerimeter;html=1;align=center;shadow=0;dashed=0;fontColor=#4277BB;labelBackgroundColor=default;fontSize=12;spacingTop=3;image=img/lib/ibm/applications/mobile_app.svg;" vertex="1" parent="1">
          <mxGeometry x="141.22" y="500" width="50" height="50" as="geometry" />
        </mxCell>
        <mxCell id="mKjcdqouhTTLhyp-S74l-10" value="App B" style="image;aspect=fixed;perimeter=ellipsePerimeter;html=1;align=center;shadow=0;dashed=0;fontColor=#4277BB;labelBackgroundColor=default;fontSize=12;spacingTop=3;image=img/lib/ibm/applications/mobile_app.svg;" vertex="1" parent="1">
          <mxGeometry x="141.22" y="590" width="50" height="50" as="geometry" />
        </mxCell>
        <mxCell id="mKjcdqouhTTLhyp-S74l-12" value="Apple Cloud" style="points=[[0,0],[0.25,0],[0.5,0],[0.75,0],[1,0],[1,0.25],[1,0.5],[1,0.75],[1,1],[0.75,1],[0.5,1],[0.25,1],[0,1],[0,0.75],[0,0.5],[0,0.25]];outlineConnect=0;gradientColor=none;html=1;whiteSpace=wrap;fontSize=12;fontStyle=0;container=1;pointerEvents=0;collapsible=0;recursiveResize=0;shape=mxgraph.aws4.group;grIcon=mxgraph.aws4.group_region;strokeColor=#147EBA;fillColor=none;verticalAlign=top;align=left;spacingLeft=30;fontColor=#147EBA;dashed=1;" vertex="1" parent="1">
          <mxGeometry x="360" y="440" width="440" height="280" as="geometry" />
        </mxCell>
        <mxCell id="mKjcdqouhTTLhyp-S74l-13" value="Apple Subscription Server" style="rounded=1;whiteSpace=wrap;html=1;" vertex="1" parent="mKjcdqouhTTLhyp-S74l-12">
          <mxGeometry x="80" y="115" width="120" height="60" as="geometry" />
        </mxCell>
      </root>
    </mxGraphModel>
  </diagram>
  <diagram id="ySWazKrC1Ee-fB8L69Yh" name="完整方案">
    <mxGraphModel dx="1434" dy="698" grid="1" gridSize="10" guides="1" tooltips="1" connect="1" arrows="1" fold="1" page="1" pageScale="1" pageWidth="827" pageHeight="1169" math="0" shadow="0">
      <root>
        <mxCell id="0" />
        <mxCell id="1" parent="0" />
      </root>
    </mxGraphModel>
  </diagram>
  <diagram id="bO1f7OWmzOBPMFNRm_HY" name="第 3 页">
    <mxGraphModel dx="1434" dy="698" grid="1" gridSize="10" guides="1" tooltips="1" connect="1" arrows="1" fold="1" page="1" pageScale="1" pageWidth="827" pageHeight="1169" math="0" shadow="0">
      <root>
        <mxCell id="0" />
        <mxCell id="1" parent="0" />
      </root>
    </mxGraphModel>
  </diagram>
</mxfile>
